<?xml version="1.0" encoding="utf-8"?>
<!-- Generator: Adobe Illustrator 23.1.1, SVG Export Plug-In . SVG Version: 6.00 Build 0)  -->
<svg version="1.1" id="Layer_1" xmlns="http://www.w3.org/2000/svg" xmlns:xlink="http://www.w3.org/1999/xlink" x="0px" y="0px"
	 width="13.979px" height="13.979px" viewBox="0 0 13.979 13.979" style="enable-background:new 0 0 13.979 13.979;"
	 xml:space="preserve">
<style type="text/css">
	.st0{opacity:0.5;fill:#FFFFFF;}
</style>
<path class="st0" d="M13.206,0c0.212,0,0.394,0.076,0.546,0.228c0.152,0.152,0.228,0.334,0.228,0.546v12.432
	c0,0.212-0.076,0.394-0.228,0.546c-0.152,0.152-0.334,0.228-0.546,0.228H9.647V8.564h1.811l0.273-2.111H9.647V5.106
	c0-0.34,0.071-0.595,0.214-0.764s0.42-0.255,0.833-0.255l1.11-0.009V2.193c-0.382-0.055-0.922-0.082-1.62-0.082
	c-0.825,0-1.485,0.243-1.979,0.728S7.463,4.011,7.463,4.896v1.556h-1.82v2.111h1.82v5.415H0.774c-0.212,0-0.394-0.076-0.546-0.228
	C0.076,13.6,0,13.418,0,13.206V0.774c0-0.212,0.076-0.394,0.228-0.546S0.561,0,0.774,0H13.206z"/>
</svg>
