<?xml version="1.0" encoding="utf-8"?>
<!-- Generator: Adobe Illustrator 23.1.1, SVG Export Plug-In . SVG Version: 6.00 Build 0)  -->
<svg version="1.1" id="Layer_1" xmlns="http://www.w3.org/2000/svg" xmlns:xlink="http://www.w3.org/1999/xlink" x="0px" y="0px"
	 width="13.979px" height="13.979px" viewBox="0 0 13.979 13.979" style="enable-background:new 0 0 13.979 13.979;"
	 xml:space="preserve">
<style type="text/css">
	.st0{opacity:0.5;}
	.st1{fill:#FFFFFF;}
</style>
<g class="st0">
	<path class="st1" d="M13.979,2.661c-0.396,0.58-0.875,1.073-1.437,1.481c0.006,0.083,0.009,0.207,0.009,0.373
		c0,0.769-0.112,1.536-0.337,2.302s-0.566,1.501-1.024,2.204c-0.458,0.704-1.004,1.326-1.637,1.867
		c-0.633,0.541-1.396,0.973-2.288,1.295c-0.893,0.322-1.848,0.483-2.865,0.483c-1.603,0-3.069-0.429-4.4-1.286
		c0.207,0.024,0.438,0.035,0.692,0.035c1.331,0,2.516-0.408,3.557-1.224C3.628,10.18,3.072,9.989,2.581,9.62
		C2.09,9.25,1.753,8.778,1.57,8.205c0.195,0.03,0.376,0.044,0.541,0.044c0.254,0,0.506-0.033,0.754-0.098
		C2.203,8.016,1.654,7.686,1.22,7.163S0.568,6.032,0.568,5.34V5.304C0.97,5.529,1.401,5.65,1.863,5.668
		c-0.39-0.26-0.701-0.6-0.931-1.02c-0.231-0.42-0.346-0.875-0.346-1.366c0-0.52,0.13-1.002,0.39-1.446
		c0.716,0.881,1.586,1.586,2.612,2.116s2.124,0.823,3.295,0.883C6.836,4.609,6.812,4.391,6.812,4.178
		c0-0.792,0.279-1.468,0.838-2.027s1.234-0.838,2.027-0.838c0.828,0,1.526,0.302,2.093,0.905c0.645-0.124,1.251-0.355,1.818-0.692
		c-0.219,0.68-0.639,1.206-1.26,1.579C12.879,3.045,13.429,2.898,13.979,2.661z"/>
</g>
</svg>
