<?xml version="1.0" encoding="utf-8"?>
<!-- Generator: Adobe Illustrator 23.1.1, SVG Export Plug-In . SVG Version: 6.00 Build 0)  -->
<svg version="1.1" id="Layer_1" xmlns="http://www.w3.org/2000/svg" xmlns:xlink="http://www.w3.org/1999/xlink" x="0px" y="0px"
	 width="13.979px" height="13.979px" viewBox="0 0 13.979 13.979" style="enable-background:new 0 0 13.979 13.979;"
	 xml:space="preserve">
<style type="text/css">
	.st0{opacity:0.5;}
	.st1{fill:#FFFFFF;}
</style>
<g class="st0">
	<path class="st1" d="M3.176,4.651v9.019H0.173V4.651H3.176z M3.367,1.866c0.006,0.443-0.147,0.813-0.46,1.11
		S2.184,3.422,1.675,3.422H1.656c-0.498,0-0.898-0.149-1.201-0.446S0,2.309,0,1.866c0-0.449,0.156-0.821,0.469-1.115
		s0.721-0.441,1.224-0.441S2.6,0.457,2.903,0.751S3.361,1.417,3.367,1.866z M13.979,8.5v5.169h-2.994V8.846
		c0-0.637-0.123-1.136-0.369-1.497S9.987,6.808,9.465,6.808c-0.382,0-0.702,0.105-0.96,0.314C8.247,7.331,8.054,7.59,7.927,7.9
		c-0.067,0.182-0.1,0.428-0.1,0.737v5.033H4.833c0.012-2.421,0.018-4.384,0.018-5.888S4.848,5.379,4.842,5.088L4.833,4.651h2.994
		v1.311H7.809c0.121-0.194,0.246-0.364,0.373-0.51c0.127-0.146,0.299-0.303,0.514-0.473s0.479-0.302,0.792-0.396
		s0.66-0.141,1.042-0.141c1.038,0,1.872,0.344,2.503,1.033S13.979,7.172,13.979,8.5z"/>
</g>
</svg>
