<?xml version="1.0" encoding="utf-8"?>
<!-- Generator: Adobe Illustrator 23.1.1, SVG Export Plug-In . SVG Version: 6.00 Build 0)  -->
<svg version="1.1" id="Layer_1" xmlns="http://www.w3.org/2000/svg" xmlns:xlink="http://www.w3.org/1999/xlink" x="0px" y="0px"
	 width="13.979px" height="13.979px" viewBox="0 0 13.979 13.979" style="enable-background:new 0 0 13.979 13.979;"
	 xml:space="preserve">
<style type="text/css">
	.st0{opacity:0.5;}
	.st1{fill:#FFFFFF;}
</style>
<g class="st0">
	<path class="st1" d="M8.558,9.679v1.63c0,0.345-0.1,0.518-0.301,0.518c-0.118,0-0.234-0.057-0.348-0.17V9.331
		c0.113-0.113,0.229-0.17,0.348-0.17C8.458,9.161,8.558,9.334,8.558,9.679z M11.17,9.686v0.355h-0.695V9.686
		c0-0.35,0.116-0.525,0.348-0.525C11.054,9.161,11.17,9.336,11.17,9.686z M3.706,8.002h0.827V7.276H2.122v0.726h0.811v4.397h0.773
		V8.002z M5.931,12.399h0.688V8.581H5.931v2.921c-0.155,0.216-0.301,0.325-0.44,0.325c-0.093,0-0.147-0.054-0.162-0.162
		c-0.005-0.015-0.008-0.106-0.008-0.27V8.581H4.633v3.021c0,0.252,0.021,0.44,0.062,0.564c0.062,0.191,0.211,0.286,0.448,0.286
		c0.247,0,0.51-0.157,0.788-0.471V12.399z M9.246,11.255V9.733c0-0.376-0.023-0.631-0.07-0.765c-0.088-0.288-0.27-0.433-0.549-0.433
		c-0.258,0-0.497,0.139-0.719,0.417V7.276H7.221v5.123h0.688v-0.371c0.232,0.283,0.471,0.425,0.719,0.425
		c0.278,0,0.461-0.142,0.549-0.425C9.223,11.889,9.246,11.631,9.246,11.255z M11.858,11.178v-0.1h-0.703
		c0,0.263-0.005,0.42-0.015,0.471c-0.036,0.185-0.139,0.278-0.309,0.278c-0.237,0-0.355-0.178-0.355-0.533v-0.672h1.383V9.825
		c0-0.407-0.07-0.706-0.209-0.896c-0.201-0.263-0.474-0.394-0.819-0.394c-0.35,0-0.626,0.131-0.827,0.394
		C9.859,9.12,9.787,9.419,9.787,9.825v1.337c0,0.407,0.075,0.706,0.224,0.896c0.201,0.263,0.479,0.394,0.835,0.394
		c0.371,0,0.649-0.137,0.835-0.41c0.093-0.139,0.147-0.278,0.162-0.417C11.853,11.58,11.858,11.43,11.858,11.178z M7.16,4.123V2.5
		c0-0.355-0.111-0.533-0.332-0.533S6.495,2.145,6.495,2.5v1.623c0,0.361,0.111,0.541,0.332,0.541S7.16,4.483,7.16,4.123z
		 M12.715,9.926c0,1.205-0.067,2.107-0.201,2.704c-0.072,0.304-0.222,0.559-0.448,0.765c-0.227,0.206-0.489,0.325-0.788,0.355
		c-0.948,0.108-2.377,0.162-4.289,0.162s-3.341-0.054-4.289-0.162c-0.299-0.031-0.563-0.149-0.792-0.355s-0.377-0.461-0.444-0.765
		c-0.134-0.577-0.201-1.478-0.201-2.704c0-1.205,0.067-2.107,0.201-2.704c0.072-0.304,0.222-0.559,0.448-0.765
		C2.14,6.25,2.405,6.129,2.709,6.093C3.652,5.99,5.078,5.939,6.99,5.939s3.341,0.052,4.289,0.155
		c0.299,0.036,0.563,0.157,0.792,0.363c0.229,0.206,0.377,0.461,0.444,0.765C12.648,7.798,12.715,8.7,12.715,9.926z M5.004,0.066
		h0.788L4.857,3.149v2.094H4.084V3.149C4.012,2.768,3.855,2.222,3.613,1.511C3.422,0.981,3.255,0.499,3.111,0.066H3.93l0.549,2.032
		L5.004,0.066z M7.863,2.639v1.352c0,0.417-0.072,0.721-0.216,0.912C7.456,5.166,7.183,5.297,6.827,5.297
		c-0.345,0-0.616-0.131-0.811-0.394C5.872,4.708,5.8,4.404,5.8,3.992V2.639c0-0.412,0.072-0.713,0.216-0.904
		c0.196-0.263,0.466-0.394,0.811-0.394c0.355,0,0.628,0.131,0.819,0.394C7.791,1.926,7.863,2.227,7.863,2.639z M10.451,1.388v3.856
		H9.748V4.818C9.475,5.138,9.21,5.297,8.952,5.297c-0.237,0-0.389-0.095-0.456-0.286c-0.041-0.124-0.062-0.317-0.062-0.58V1.388
		h0.703v2.836c0,0.17,0.003,0.26,0.008,0.27c0.015,0.113,0.07,0.17,0.162,0.17c0.139,0,0.286-0.111,0.44-0.332V1.388H10.451z"/>
</g>
</svg>
