<?xml version="1.0" encoding="utf-8"?>
<!-- Generator: Adobe Illustrator 23.1.1, SVG Export Plug-In . SVG Version: 6.00 Build 0)  -->
<svg version="1.1" id="Layer_1" xmlns="http://www.w3.org/2000/svg" xmlns:xlink="http://www.w3.org/1999/xlink" x="0px" y="0px"
	 width="13.979px" height="13.979px" viewBox="0 0 13.979 13.979" style="enable-background:new 0 0 13.979 13.979;"
	 xml:space="preserve">
<style type="text/css">
	.st0{fill:#EB0000;}
</style>
<g>
	<path class="st0" d="M10.984,8.238v2.496c0,0.619-0.22,1.148-0.659,1.587s-0.969,0.659-1.587,0.659h-6.49
		c-0.619,0-1.148-0.22-1.587-0.659S0,11.353,0,10.734v-6.49c0-0.619,0.22-1.148,0.659-1.587s0.969-0.659,1.587-0.659h5.492
		c0.073,0,0.133,0.023,0.179,0.07c0.047,0.047,0.07,0.107,0.07,0.179v0.499c0,0.073-0.023,0.133-0.07,0.179
		c-0.047,0.047-0.107,0.07-0.179,0.07H2.247c-0.343,0-0.637,0.122-0.882,0.367S0.999,3.9,0.999,4.244v6.49
		c0,0.343,0.122,0.637,0.367,0.882s0.538,0.367,0.882,0.367h6.49c0.343,0,0.637-0.122,0.882-0.367
		c0.244-0.244,0.367-0.538,0.367-0.882V8.238c0-0.073,0.023-0.133,0.07-0.179s0.107-0.07,0.179-0.07h0.499
		c0.073,0,0.133,0.023,0.179,0.07C10.96,8.105,10.984,8.165,10.984,8.238z M13.979,1.498v3.994c0,0.135-0.049,0.252-0.148,0.351
		c-0.099,0.099-0.216,0.148-0.351,0.148c-0.135,0-0.252-0.049-0.351-0.148L11.756,4.47L6.67,9.556
		C6.618,9.608,6.558,9.634,6.49,9.634c-0.068,0-0.127-0.026-0.179-0.078L5.422,8.667C5.37,8.615,5.344,8.555,5.344,8.487
		c0-0.068,0.026-0.127,0.078-0.179l5.086-5.086L9.135,1.849C9.036,1.75,8.987,1.633,8.987,1.498s0.049-0.252,0.148-0.351
		c0.099-0.099,0.216-0.148,0.351-0.148h3.994c0.135,0,0.252,0.049,0.351,0.148C13.93,1.246,13.979,1.363,13.979,1.498z"/>
</g>
</svg>
